<?xml version="1.0" encoding="UTF-8" standalone="no"?>
<!DOCTYPE svg PUBLIC "-//W3C//DTD SVG 1.1//EN"
 "http://www.w3.org/Graphics/SVG/1.1/DTD/svg11.dtd">
<!-- Generated by graphviz version 13.1.2 (20250808.2320)
 -->
<!-- Pages: 1 -->
<svg width="767pt" height="1034pt"
 viewBox="0.00 0.00 767.00 1034.00" xmlns="http://www.w3.org/2000/svg" xmlns:xlink="http://www.w3.org/1999/xlink">
<g id="graph0" class="graph" transform="scale(1 1) rotate(0) translate(4 1029.5)">
<polygon fill="white" stroke="none" points="-4,4 -4,-1029.5 762.88,-1029.5 762.88,4 -4,4"/>
<!-- 2440111631008 -->
<g id="node1" class="node">
<title>2440111631008</title>
<polygon fill="lightgrey" stroke="black" points="616.75,-22.25 562.75,-22.25 562.75,0 616.75,0 616.75,-22.25"/>
<text xml:space="preserve" text-anchor="middle" x="589.75" y="-6.85" font-family="Times New Roman,serif" font-size="12.00">View0</text>
</g>
<!-- 2440118506672 -->
<g id="node2" class="node">
<title>2440118506672</title>
<polygon fill="lightgrey" stroke="black" points="616.75,-80.5 562.75,-80.5 562.75,-58.25 616.75,-58.25 616.75,-80.5"/>
<text xml:space="preserve" text-anchor="middle" x="589.75" y="-65.1" font-family="Times New Roman,serif" font-size="12.00">Clone0</text>
</g>
<!-- 2440118506672&#45;&gt;2440111631008 -->
<g id="edge1" class="edge">
<title>2440118506672&#45;&gt;2440111631008</title>
<path fill="none" stroke="black" d="M589.75,-57.79C589.75,-51.12 589.75,-42.24 589.75,-34.09"/>
<polygon fill="black" stroke="black" points="593.25,-34.17 589.75,-24.17 586.25,-34.17 593.25,-34.17"/>
</g>
<!-- 2440109243024 -->
<g id="node3" class="node">
<title>2440109243024</title>
<polygon fill="lightgrey" stroke="black" points="624.75,-138.75 554.75,-138.75 554.75,-116.5 624.75,-116.5 624.75,-138.75"/>
<text xml:space="preserve" text-anchor="middle" x="589.75" y="-123.35" font-family="Times New Roman,serif" font-size="12.00">Transpose0</text>
</g>
<!-- 2440109243024&#45;&gt;2440118506672 -->
<g id="edge2" class="edge">
<title>2440109243024&#45;&gt;2440118506672</title>
<path fill="none" stroke="black" d="M589.75,-116.04C589.75,-109.37 589.75,-100.49 589.75,-92.34"/>
<polygon fill="black" stroke="black" points="593.25,-92.42 589.75,-82.42 586.25,-92.42 593.25,-92.42"/>
</g>
<!-- 2440118506864 -->
<g id="node4" class="node">
<title>2440118506864</title>
<polygon fill="lightgrey" stroke="black" points="616.75,-197 562.75,-197 562.75,-174.75 616.75,-174.75 616.75,-197"/>
<text xml:space="preserve" text-anchor="middle" x="589.75" y="-181.6" font-family="Times New Roman,serif" font-size="12.00">Slice0</text>
</g>
<!-- 2440118506864&#45;&gt;2440109243024 -->
<g id="edge3" class="edge">
<title>2440118506864&#45;&gt;2440109243024</title>
<path fill="none" stroke="black" d="M589.75,-174.29C589.75,-167.62 589.75,-158.74 589.75,-150.59"/>
<polygon fill="black" stroke="black" points="593.25,-150.67 589.75,-140.67 586.25,-150.67 593.25,-150.67"/>
</g>
<!-- 2440118506912 -->
<g id="node5" class="node">
<title>2440118506912</title>
<polygon fill="lightgrey" stroke="black" points="616.75,-255.25 562.75,-255.25 562.75,-233 616.75,-233 616.75,-255.25"/>
<text xml:space="preserve" text-anchor="middle" x="589.75" y="-239.85" font-family="Times New Roman,serif" font-size="12.00">Slice0</text>
</g>
<!-- 2440118506912&#45;&gt;2440118506864 -->
<g id="edge4" class="edge">
<title>2440118506912&#45;&gt;2440118506864</title>
<path fill="none" stroke="black" d="M589.75,-232.54C589.75,-225.87 589.75,-216.99 589.75,-208.84"/>
<polygon fill="black" stroke="black" points="593.25,-208.92 589.75,-198.92 586.25,-208.92 593.25,-208.92"/>
</g>
<!-- 2440118506960 -->
<g id="node6" class="node">
<title>2440118506960</title>
<polygon fill="lightgrey" stroke="black" points="616.75,-313.5 562.75,-313.5 562.75,-291.25 616.75,-291.25 616.75,-313.5"/>
<text xml:space="preserve" text-anchor="middle" x="589.75" y="-298.1" font-family="Times New Roman,serif" font-size="12.00">Slice0</text>
</g>
<!-- 2440118506960&#45;&gt;2440118506912 -->
<g id="edge5" class="edge">
<title>2440118506960&#45;&gt;2440118506912</title>
<path fill="none" stroke="black" d="M589.75,-290.79C589.75,-284.12 589.75,-275.24 589.75,-267.09"/>
<polygon fill="black" stroke="black" points="593.25,-267.17 589.75,-257.17 586.25,-267.17 593.25,-267.17"/>
</g>
<!-- 2440118507152 -->
<g id="node7" class="node">
<title>2440118507152</title>
<polygon fill="lightgrey" stroke="black" points="630.38,-371.75 549.12,-371.75 549.12,-349.5 630.38,-349.5 630.38,-371.75"/>
<text xml:space="preserve" text-anchor="middle" x="589.75" y="-356.35" font-family="Times New Roman,serif" font-size="12.00">Convolution0</text>
</g>
<!-- 2440118507152&#45;&gt;2440118506960 -->
<g id="edge6" class="edge">
<title>2440118507152&#45;&gt;2440118506960</title>
<path fill="none" stroke="black" d="M589.75,-349.04C589.75,-342.37 589.75,-333.49 589.75,-325.34"/>
<polygon fill="black" stroke="black" points="593.25,-325.42 589.75,-315.42 586.25,-325.42 593.25,-325.42"/>
</g>
<!-- 2440118507296 -->
<g id="node8" class="node">
<title>2440118507296</title>
<polygon fill="lightgrey" stroke="black" points="516.75,-437.12 462.75,-437.12 462.75,-414.88 516.75,-414.88 516.75,-437.12"/>
<text xml:space="preserve" text-anchor="middle" x="489.75" y="-421.73" font-family="Times New Roman,serif" font-size="12.00">Relu0</text>
</g>
<!-- 2440118507296&#45;&gt;2440118507152 -->
<g id="edge7" class="edge">
<title>2440118507296&#45;&gt;2440118507152</title>
<path fill="none" stroke="black" d="M506.26,-414.53C521.82,-404.67 545.39,-389.74 563.53,-378.24"/>
<polygon fill="black" stroke="black" points="565.36,-381.23 571.93,-372.92 561.61,-375.31 565.36,-381.23"/>
</g>
<!-- 2440118507536 -->
<g id="node9" class="node">
<title>2440118507536</title>
<polygon fill="lightgrey" stroke="black" points="530.38,-502.5 449.12,-502.5 449.12,-480.25 530.38,-480.25 530.38,-502.5"/>
<text xml:space="preserve" text-anchor="middle" x="489.75" y="-487.1" font-family="Times New Roman,serif" font-size="12.00">Convolution0</text>
</g>
<!-- 2440118507536&#45;&gt;2440118507296 -->
<g id="edge8" class="edge">
<title>2440118507536&#45;&gt;2440118507296</title>
<path fill="none" stroke="black" d="M489.75,-479.91C489.75,-471.42 489.75,-459.17 489.75,-448.59"/>
<polygon fill="black" stroke="black" points="493.25,-448.78 489.75,-438.78 486.25,-448.78 493.25,-448.78"/>
</g>
<!-- 2440118507584 -->
<g id="node10" class="node">
<title>2440118507584</title>
<polygon fill="lightgrey" stroke="black" points="416.75,-567.88 362.75,-567.88 362.75,-545.62 416.75,-545.62 416.75,-567.88"/>
<text xml:space="preserve" text-anchor="middle" x="389.75" y="-552.48" font-family="Times New Roman,serif" font-size="12.00">Relu0</text>
</g>
<!-- 2440118507584&#45;&gt;2440118507536 -->
<g id="edge9" class="edge">
<title>2440118507584&#45;&gt;2440118507536</title>
<path fill="none" stroke="black" d="M406.26,-545.28C421.82,-535.42 445.39,-520.49 463.53,-508.99"/>
<polygon fill="black" stroke="black" points="465.36,-511.98 471.93,-503.67 461.61,-506.06 465.36,-511.98"/>
</g>
<!-- 2440118507872 -->
<g id="node11" class="node">
<title>2440118507872</title>
<polygon fill="lightgrey" stroke="black" points="416.75,-633.25 362.75,-633.25 362.75,-611 416.75,-611 416.75,-633.25"/>
<text xml:space="preserve" text-anchor="middle" x="389.75" y="-617.85" font-family="Times New Roman,serif" font-size="12.00">Add0</text>
</g>
<!-- 2440118507872&#45;&gt;2440118507584 -->
<g id="edge10" class="edge">
<title>2440118507872&#45;&gt;2440118507584</title>
<path fill="none" stroke="black" d="M389.75,-610.66C389.75,-602.17 389.75,-589.92 389.75,-579.34"/>
<polygon fill="black" stroke="black" points="393.25,-579.53 389.75,-569.53 386.25,-579.53 393.25,-579.53"/>
</g>
<!-- 2440118507920 -->
<g id="node12" class="node">
<title>2440118507920</title>
<polygon fill="lightgrey" stroke="black" points="430.38,-691.5 349.12,-691.5 349.12,-669.25 430.38,-669.25 430.38,-691.5"/>
<text xml:space="preserve" text-anchor="middle" x="389.75" y="-676.1" font-family="Times New Roman,serif" font-size="12.00">Convolution0</text>
</g>
<!-- 2440118507920&#45;&gt;2440118507872 -->
<g id="edge11" class="edge">
<title>2440118507920&#45;&gt;2440118507872</title>
<path fill="none" stroke="black" d="M389.75,-668.79C389.75,-662.12 389.75,-653.24 389.75,-645.09"/>
<polygon fill="black" stroke="black" points="393.25,-645.17 389.75,-635.17 386.25,-645.17 393.25,-645.17"/>
</g>
<!-- 2440118508160 -->
<g id="node13" class="node">
<title>2440118508160</title>
<polygon fill="lightgrey" stroke="black" points="314.75,-756.88 260.75,-756.88 260.75,-734.62 314.75,-734.62 314.75,-756.88"/>
<text xml:space="preserve" text-anchor="middle" x="287.75" y="-741.48" font-family="Times New Roman,serif" font-size="12.00">Mul0</text>
</g>
<!-- 2440118508160&#45;&gt;2440118507920 -->
<g id="edge12" class="edge">
<title>2440118508160&#45;&gt;2440118507920</title>
<path fill="none" stroke="black" d="M304.59,-734.28C320.54,-724.38 344.73,-709.35 363.26,-697.83"/>
<polygon fill="black" stroke="black" points="364.95,-700.9 371.6,-692.65 361.26,-694.96 364.95,-700.9"/>
</g>
<!-- 2440118508304 -->
<g id="node14" class="node">
<title>2440118508304</title>
<polygon fill="lightgrey" stroke="black" points="360.75,-822.25 306.75,-822.25 306.75,-800 360.75,-800 360.75,-822.25"/>
<text xml:space="preserve" text-anchor="middle" x="333.75" y="-806.85" font-family="Times New Roman,serif" font-size="12.00">Tanh0</text>
</g>
<!-- 2440118508304&#45;&gt;2440118508160 -->
<g id="edge13" class="edge">
<title>2440118508304&#45;&gt;2440118508160</title>
<path fill="none" stroke="black" d="M326.15,-799.66C319.59,-790.62 309.93,-777.3 301.94,-766.29"/>
<polygon fill="black" stroke="black" points="304.8,-764.28 296.09,-758.25 299.14,-768.39 304.8,-764.28"/>
</g>
<!-- 2440118508448 -->
<g id="node15" class="node">
<title>2440118508448</title>
<polygon fill="lightgrey" stroke="black" points="383.38,-880.5 302.12,-880.5 302.12,-858.25 383.38,-858.25 383.38,-880.5"/>
<text xml:space="preserve" text-anchor="middle" x="342.75" y="-865.1" font-family="Times New Roman,serif" font-size="12.00">Convolution0</text>
</g>
<!-- 2440118508448&#45;&gt;2440118508304 -->
<g id="edge14" class="edge">
<title>2440118508448&#45;&gt;2440118508304</title>
<path fill="none" stroke="black" d="M341.06,-857.79C339.98,-851.04 338.54,-842.03 337.22,-833.8"/>
<polygon fill="black" stroke="black" points="340.71,-833.47 335.67,-824.15 333.8,-834.58 340.71,-833.47"/>
</g>
<!-- 2440118508496 -->
<g id="node16" class="node">
<title>2440118508496</title>
<polygon fill="lightgrey" stroke="black" points="331.38,-945.88 250.12,-945.88 250.12,-923.62 331.38,-923.62 331.38,-945.88"/>
<text xml:space="preserve" text-anchor="middle" x="290.75" y="-930.48" font-family="Times New Roman,serif" font-size="12.00">Convolution0</text>
</g>
<!-- 2440118508496&#45;&gt;2440118508448 -->
<g id="edge15" class="edge">
<title>2440118508496&#45;&gt;2440118508448</title>
<path fill="none" stroke="black" d="M299.34,-923.28C306.91,-914.06 318.13,-900.38 327.26,-889.25"/>
<polygon fill="black" stroke="black" points="329.73,-891.77 333.36,-881.82 324.31,-887.33 329.73,-891.77"/>
</g>
<!-- 2440118508736 -->
<g id="node22" class="node">
<title>2440118508736</title>
<polygon fill="lightgrey" stroke="black" points="279.38,-880.5 198.12,-880.5 198.12,-858.25 279.38,-858.25 279.38,-880.5"/>
<text xml:space="preserve" text-anchor="middle" x="238.75" y="-865.1" font-family="Times New Roman,serif" font-size="12.00">Convolution0</text>
</g>
<!-- 2440118508496&#45;&gt;2440118508736 -->
<g id="edge22" class="edge">
<title>2440118508496&#45;&gt;2440118508736</title>
<path fill="none" stroke="black" d="M282.16,-923.28C274.59,-914.06 263.37,-900.38 254.24,-889.25"/>
<polygon fill="black" stroke="black" points="257.19,-887.33 248.14,-881.82 251.77,-891.77 257.19,-887.33"/>
</g>
<!-- 2440118508832 -->
<g id="node17" class="node">
<title>2440118508832</title>
<polygon fill="lightblue" stroke="black" points="284.38,-1025.5 185.12,-1025.5 185.12,-989 284.38,-989 284.38,-1025.5"/>
<text xml:space="preserve" text-anchor="middle" x="234.75" y="-1010.1" font-family="Times New Roman,serif" font-size="12.00">start_conv.weight</text>
<text xml:space="preserve" text-anchor="middle" x="234.75" y="-995.85" font-family="Times New Roman,serif" font-size="12.00"> (2, 256, 1)</text>
</g>
<!-- 2440118508832&#45;&gt;2440118508496 -->
<g id="edge16" class="edge">
<title>2440118508832&#45;&gt;2440118508496</title>
<path fill="none" stroke="black" d="M248.59,-988.82C256.73,-978.58 267.02,-965.62 275.4,-955.07"/>
<polygon fill="black" stroke="black" points="278.02,-957.4 281.5,-947.39 272.54,-953.04 278.02,-957.4"/>
</g>
<!-- 2440118508784 -->
<g id="node18" class="node">
<title>2440118508784</title>
<polygon fill="lightblue" stroke="black" points="388.62,-1025.5 302.88,-1025.5 302.88,-989 388.62,-989 388.62,-1025.5"/>
<text xml:space="preserve" text-anchor="middle" x="345.75" y="-1010.1" font-family="Times New Roman,serif" font-size="12.00">start_conv.bias</text>
<text xml:space="preserve" text-anchor="middle" x="345.75" y="-995.85" font-family="Times New Roman,serif" font-size="12.00"> (2)</text>
</g>
<!-- 2440118508784&#45;&gt;2440118508496 -->
<g id="edge17" class="edge">
<title>2440118508784&#45;&gt;2440118508496</title>
<path fill="none" stroke="black" d="M332.15,-988.82C324.17,-978.58 314.05,-965.62 305.82,-955.07"/>
<polygon fill="black" stroke="black" points="308.75,-953.13 299.84,-947.4 303.23,-957.44 308.75,-953.13"/>
</g>
<!-- 2440118508640 -->
<g id="node19" class="node">
<title>2440118508640</title>
<polygon fill="lightblue" stroke="black" points="465.62,-953 349.88,-953 349.88,-916.5 465.62,-916.5 465.62,-953"/>
<text xml:space="preserve" text-anchor="middle" x="407.75" y="-937.6" font-family="Times New Roman,serif" font-size="12.00">filter_convs.0.weight</text>
<text xml:space="preserve" text-anchor="middle" x="407.75" y="-923.35" font-family="Times New Roman,serif" font-size="12.00"> (2, 2, 2)</text>
</g>
<!-- 2440118508640&#45;&gt;2440118508448 -->
<g id="edge18" class="edge">
<title>2440118508640&#45;&gt;2440118508448</title>
<path fill="none" stroke="black" d="M389.64,-916.1C380.97,-907.64 370.57,-897.5 361.78,-888.93"/>
<polygon fill="black" stroke="black" points="364.33,-886.53 354.72,-882.05 359.44,-891.54 364.33,-886.53"/>
</g>
<!-- 2440118508688 -->
<g id="node20" class="node">
<title>2440118508688</title>
<polygon fill="lightblue" stroke="black" points="585.88,-953 483.62,-953 483.62,-916.5 585.88,-916.5 585.88,-953"/>
<text xml:space="preserve" text-anchor="middle" x="534.75" y="-937.6" font-family="Times New Roman,serif" font-size="12.00">filter_convs.0.bias</text>
<text xml:space="preserve" text-anchor="middle" x="534.75" y="-923.35" font-family="Times New Roman,serif" font-size="12.00"> (2)</text>
</g>
<!-- 2440118508688&#45;&gt;2440118508448 -->
<g id="edge19" class="edge">
<title>2440118508688&#45;&gt;2440118508448</title>
<path fill="none" stroke="black" d="M483.3,-916.77C452.67,-906.66 414.26,-893.98 385.34,-884.43"/>
<polygon fill="black" stroke="black" points="386.78,-881.22 376.19,-881.41 384.59,-887.87 386.78,-881.22"/>
</g>
<!-- 2440118508400 -->
<g id="node21" class="node">
<title>2440118508400</title>
<polygon fill="lightgrey" stroke="black" points="280.62,-822.25 218.88,-822.25 218.88,-800 280.62,-800 280.62,-822.25"/>
<text xml:space="preserve" text-anchor="middle" x="249.75" y="-806.85" font-family="Times New Roman,serif" font-size="12.00">Sigmoid0</text>
</g>
<!-- 2440118508400&#45;&gt;2440118508160 -->
<g id="edge20" class="edge">
<title>2440118508400&#45;&gt;2440118508160</title>
<path fill="none" stroke="black" d="M256.02,-799.66C261.39,-790.71 269.27,-777.57 275.83,-766.63"/>
<polygon fill="black" stroke="black" points="278.67,-768.69 280.81,-758.32 272.67,-765.09 278.67,-768.69"/>
</g>
<!-- 2440118508736&#45;&gt;2440118508400 -->
<g id="edge21" class="edge">
<title>2440118508736&#45;&gt;2440118508400</title>
<path fill="none" stroke="black" d="M240.82,-857.79C242.14,-851.04 243.9,-842.03 245.51,-833.8"/>
<polygon fill="black" stroke="black" points="248.92,-834.63 247.4,-824.14 242.05,-833.29 248.92,-834.63"/>
</g>
<!-- 2440118508880 -->
<g id="node23" class="node">
<title>2440118508880</title>
<polygon fill="lightblue" stroke="black" points="113.5,-953 0,-953 0,-916.5 113.5,-916.5 113.5,-953"/>
<text xml:space="preserve" text-anchor="middle" x="56.75" y="-937.6" font-family="Times New Roman,serif" font-size="12.00">gate_convs.0.weight</text>
<text xml:space="preserve" text-anchor="middle" x="56.75" y="-923.35" font-family="Times New Roman,serif" font-size="12.00"> (2, 2, 2)</text>
</g>
<!-- 2440118508880&#45;&gt;2440118508736 -->
<g id="edge23" class="edge">
<title>2440118508880&#45;&gt;2440118508736</title>
<path fill="none" stroke="black" d="M107.45,-916.1C135.92,-906.18 170.99,-893.97 197.72,-884.66"/>
<polygon fill="black" stroke="black" points="198.53,-888.09 206.83,-881.49 196.23,-881.47 198.53,-888.09"/>
</g>
<!-- 2440118509120 -->
<g id="node24" class="node">
<title>2440118509120</title>
<polygon fill="lightblue" stroke="black" points="231.75,-953 131.75,-953 131.75,-916.5 231.75,-916.5 231.75,-953"/>
<text xml:space="preserve" text-anchor="middle" x="181.75" y="-937.6" font-family="Times New Roman,serif" font-size="12.00">gate_convs.0.bias</text>
<text xml:space="preserve" text-anchor="middle" x="181.75" y="-923.35" font-family="Times New Roman,serif" font-size="12.00"> (2)</text>
</g>
<!-- 2440118509120&#45;&gt;2440118508736 -->
<g id="edge24" class="edge">
<title>2440118509120&#45;&gt;2440118508736</title>
<path fill="none" stroke="black" d="M197.63,-916.1C205.08,-907.81 213.97,-897.92 221.58,-889.47"/>
<polygon fill="black" stroke="black" points="224.1,-891.89 228.19,-882.12 218.9,-887.21 224.1,-891.89"/>
</g>
<!-- 2440118508112 -->
<g id="node25" class="node">
<title>2440118508112</title>
<polygon fill="lightblue" stroke="black" points="446.5,-764 333,-764 333,-727.5 446.5,-727.5 446.5,-764"/>
<text xml:space="preserve" text-anchor="middle" x="389.75" y="-748.6" font-family="Times New Roman,serif" font-size="12.00">skip_convs.0.weight</text>
<text xml:space="preserve" text-anchor="middle" x="389.75" y="-734.35" font-family="Times New Roman,serif" font-size="12.00"> (16, 2, 1)</text>
</g>
<!-- 2440118508112&#45;&gt;2440118507920 -->
<g id="edge25" class="edge">
<title>2440118508112&#45;&gt;2440118507920</title>
<path fill="none" stroke="black" d="M389.75,-727.1C389.75,-719.78 389.75,-711.22 389.75,-703.49"/>
<polygon fill="black" stroke="black" points="393.25,-703.51 389.75,-693.51 386.25,-703.51 393.25,-703.51"/>
</g>
<!-- 2440118508208 -->
<g id="node26" class="node">
<title>2440118508208</title>
<polygon fill="lightblue" stroke="black" points="564.75,-764 464.75,-764 464.75,-727.5 564.75,-727.5 564.75,-764"/>
<text xml:space="preserve" text-anchor="middle" x="514.75" y="-748.6" font-family="Times New Roman,serif" font-size="12.00">skip_convs.0.bias</text>
<text xml:space="preserve" text-anchor="middle" x="514.75" y="-734.35" font-family="Times New Roman,serif" font-size="12.00"> (16)</text>
</g>
<!-- 2440118508208&#45;&gt;2440118507920 -->
<g id="edge26" class="edge">
<title>2440118508208&#45;&gt;2440118507920</title>
<path fill="none" stroke="black" d="M479.93,-727.1C461.42,-717.71 438.85,-706.27 420.91,-697.18"/>
<polygon fill="black" stroke="black" points="422.55,-694.08 412.04,-692.68 419.38,-700.32 422.55,-694.08"/>
</g>
<!-- 2440118507728 -->
<g id="node27" class="node">
<title>2440118507728</title>
<polygon fill="lightblue" stroke="black" points="544.62,-575 434.88,-575 434.88,-538.5 544.62,-538.5 544.62,-575"/>
<text xml:space="preserve" text-anchor="middle" x="489.75" y="-559.6" font-family="Times New Roman,serif" font-size="12.00">end_conv_1.weight</text>
<text xml:space="preserve" text-anchor="middle" x="489.75" y="-545.35" font-family="Times New Roman,serif" font-size="12.00"> (8, 16, 1)</text>
</g>
<!-- 2440118507728&#45;&gt;2440118507536 -->
<g id="edge27" class="edge">
<title>2440118507728&#45;&gt;2440118507536</title>
<path fill="none" stroke="black" d="M489.75,-538.1C489.75,-530.78 489.75,-522.22 489.75,-514.49"/>
<polygon fill="black" stroke="black" points="493.25,-514.51 489.75,-504.51 486.25,-514.51 493.25,-514.51"/>
</g>
<!-- 2440118507776 -->
<g id="node28" class="node">
<title>2440118507776</title>
<polygon fill="lightblue" stroke="black" points="658.88,-575 562.62,-575 562.62,-538.5 658.88,-538.5 658.88,-575"/>
<text xml:space="preserve" text-anchor="middle" x="610.75" y="-559.6" font-family="Times New Roman,serif" font-size="12.00">end_conv_1.bias</text>
<text xml:space="preserve" text-anchor="middle" x="610.75" y="-545.35" font-family="Times New Roman,serif" font-size="12.00"> (8)</text>
</g>
<!-- 2440118507776&#45;&gt;2440118507536 -->
<g id="edge28" class="edge">
<title>2440118507776&#45;&gt;2440118507536</title>
<path fill="none" stroke="black" d="M577.04,-538.1C559.21,-528.75 537.48,-517.37 520.16,-508.3"/>
<polygon fill="black" stroke="black" points="521.85,-505.24 511.36,-503.7 518.6,-511.44 521.85,-505.24"/>
</g>
<!-- 2440118507392 -->
<g id="node29" class="node">
<title>2440118507392</title>
<polygon fill="lightblue" stroke="black" points="644.62,-444.25 534.88,-444.25 534.88,-407.75 644.62,-407.75 644.62,-444.25"/>
<text xml:space="preserve" text-anchor="middle" x="589.75" y="-428.85" font-family="Times New Roman,serif" font-size="12.00">end_conv_2.weight</text>
<text xml:space="preserve" text-anchor="middle" x="589.75" y="-414.6" font-family="Times New Roman,serif" font-size="12.00"> (256, 8, 1)</text>
</g>
<!-- 2440118507392&#45;&gt;2440118507152 -->
<g id="edge29" class="edge">
<title>2440118507392&#45;&gt;2440118507152</title>
<path fill="none" stroke="black" d="M589.75,-407.35C589.75,-400.03 589.75,-391.47 589.75,-383.74"/>
<polygon fill="black" stroke="black" points="593.25,-383.76 589.75,-373.76 586.25,-383.76 593.25,-383.76"/>
</g>
<!-- 2440118507440 -->
<g id="node30" class="node">
<title>2440118507440</title>
<polygon fill="lightblue" stroke="black" points="758.88,-444.25 662.62,-444.25 662.62,-407.75 758.88,-407.75 758.88,-444.25"/>
<text xml:space="preserve" text-anchor="middle" x="710.75" y="-428.85" font-family="Times New Roman,serif" font-size="12.00">end_conv_2.bias</text>
<text xml:space="preserve" text-anchor="middle" x="710.75" y="-414.6" font-family="Times New Roman,serif" font-size="12.00"> (256)</text>
</g>
<!-- 2440118507440&#45;&gt;2440118507152 -->
<g id="edge30" class="edge">
<title>2440118507440&#45;&gt;2440118507152</title>
<path fill="none" stroke="black" d="M677.04,-407.35C659.21,-398 637.48,-386.62 620.16,-377.55"/>
<polygon fill="black" stroke="black" points="621.85,-374.49 611.36,-372.95 618.6,-380.69 621.85,-374.49"/>
</g>
</g>
</svg>
